<!DOCTYPE svg PUBLIC "-//W3C//DTD SVG 1.1//EN" "http://www.w3.org/Graphics/SVG/1.1/DTD/svg11.dtd">
<!-- Uploaded to: SVG Repo, www.svgrepo.com, Transformed by: SVG Repo Mixer Tools -->
<svg width="64px" height="64px" viewBox="0 0 2000 2000" enable-background="new 0 0 2000 2000" id="Layer_1" version="1.1" xml:space="preserve" xmlns="http://www.w3.org/2000/svg" xmlns:xlink="http://www.w3.org/1999/xlink" fill="#000000">
<g id="SVGRepo_bgCarrier" stroke-width="0"/>
<g id="SVGRepo_tracerCarrier" stroke-linecap="round" stroke-linejoin="round"/>
<g id="SVGRepo_iconCarrier"> <g> <path d="M1153.2,633.5c-3.8,2.8-7.5,5.6-11.1,8.6c-2,1.6-4,3.4-5.9,5.1c-3.4,2.9-6.9,5.9-10.3,8.9 c-1.4,1.3-2.7,2.6-4.1,3.9c-136.7,129.2-179,360.2-182.5,380.2c9.1,25.4,115.8,329.4,99.7,502.9c8-9.5,18.2-17,29.8-21.8 c191.3-79.1,253.6-511.2,287.1-743.4c10.2-70.5,17.5-121.4,25.3-141.9c25.1-65.8,99.5-80.7,144.5-83.6c-17-4.5-41.7-8.8-74.6-8.8 c-66,0-142,16.6-225.8,49.2c-19.2,7.5-37,17-53.8,27.9c-4.3,2.8-8.5,5.6-12.6,8.5C1156.9,630.7,1155.1,632.1,1153.2,633.5z" fill="#05C600"/> <path d="M887.8,698.7c-33.3,0.4-67,2.4-101.5,6.1c-1.6,17.2-3.1,35-4.5,53.6c2.2,2.9,4.4,5.9,6.6,8.9 c3.3,4.4,6.5,8.9,9.8,13.5c2.5,3.5,4.9,7,7.4,10.6c7.2,10.4,14.4,21,21.6,32c1.4,2.1,2.7,4.1,4.1,6.2c3.5,5.5,7,11.1,10.5,16.7 c7.4-1.8,23-5.2,46-7.7V698.7z" fill="#FFD400"/> <path d="M989.4,836.9c9-20.6,19.5-42.2,31.8-64c-3.3-23.6-6.7-46.2-10.2-68c-38.6-4.4-77.7-6.5-117.6-6.2V838 C918.4,835.6,950.8,834.3,989.4,836.9z" fill="#FFD400"/> <path d="M932.7,367.3c-13.8-1.4-26.7-2.3-39.1-2.7v144.5c25.8-0.3,52.4,0.1,79.4,1.6 C959,452,945.1,404.5,932.7,367.3z" fill="#FFD400"/> <path d="M974.4,516.6c-27.5-1.6-54.6-2.1-80.8-1.7v177.9c39.5-0.3,78.3,1.8,116.6,6.1 C998.9,629,986.6,568.5,974.4,516.6z" fill="#FFD400"/> <path d="M1026,764.7c10.4-17.8,21.9-35.6,34.7-52.9c-14.5-2.4-29-4.5-43.5-6.3 C1020.2,724.6,1023.2,744.3,1026,764.7z" fill="#FFD400"/> <path d="M887.8,358.5v-96.1c-7.8,8.7-25,33.6-44.1,96.8C857.2,358.4,871.8,358.1,887.8,358.5z" fill="#FFD400"/> <path d="M909.7,971.5c2,4.2,4,8.5,5.9,12.8c5.3,11.6,10.5,23.4,15.5,35.5c0,0.1,0.1,0.2,0.1,0.3 c6.7-32.4,23-100.8,54.2-174.3c0.5-1.1,1-2.2,1.4-3.3c-37.7-2.4-69.2-1.1-93.4,1.3v94.4c1.9,3.8,3.7,7.6,5.6,11.4 C902.8,956.9,906.2,964.2,909.7,971.5z" fill="#FFD400"/> <path d="M979.1,511.1c50.1,3.2,101.2,10.2,150.1,23c-27.2-53.4-60.1-103.4-98.3-149.3c-33.3-8.3-64.1-13.8-92-17 C951.4,405.3,965.2,452.6,979.1,511.1z" fill="#FFD400"/> <path d="M1016.2,699.6c16.2,1.9,32.4,4.2,48.5,7c6-7.9,12.2-15.6,18.7-23.2c0.2-0.2,0.3-0.4,0.5-0.6 c3.8-4.4,7.8-8.8,11.8-13.1c1.2-1.2,2.3-2.5,3.5-3.7c3.6-3.7,7.2-7.4,11-11c1.7-1.7,3.4-3.3,5.1-4.9c3.6-3.3,7.2-6.6,10.9-9.8 c1.9-1.7,3.9-3.4,5.9-5c3.8-3.1,7.6-6.2,11.5-9.2c1.9-1.5,3.8-2.9,5.8-4.3c4.2-3.1,8.5-6.1,12.9-9c0.5-0.3,1-0.7,1.4-1 c-9.2-24.1-19.6-47.7-31.1-70.7c-49.5-13.4-101.4-20.7-152.3-24C992.7,569.1,1004.9,629.7,1016.2,699.6z" fill="#FFD400"/> <path d="M893.6,267.8v91c11.7,0.4,24.1,1.2,37.1,2.5C914.2,312.7,900.7,282.4,893.6,267.8z" fill="#FFD400"/> <path d="M1024.6,377.3c-32.7-38.4-69.1-73.8-108.7-105.5l-0.4-0.3c-5.3-4.2-11.4-7.1-17.9-8.7 c7,14,21.5,45.9,39.3,99C963.7,364.7,993,369.8,1024.6,377.3z" fill="#FFD400"/> <path d="M491.1,1135.9c22.5,155.6,140.7,291.3,206.2,356c-18-25.8-41-60.8-64.8-102.1c-0.5-0.9-1-1.7-1.5-2.6 c-3.2-5.6-6.5-11.3-9.7-17.2c-0.8-1.5-1.6-2.9-2.4-4.3c-3.6-6.4-7.1-13-10.6-19.7c-0.3-0.6-0.7-1.2-1-1.9c0-0.1-0.1-0.1-0.1-0.2 c0-0.1-0.1-0.2-0.1-0.3c-2-3.8-4-7.8-6-11.7c-1.4-2.8-2.8-5.5-4.3-8.3c-2-4-4.1-8.3-6.1-12.4c-1.4-3-2.9-5.8-4.3-8.8 c-2.1-4.4-4.2-9-6.3-13.5c-1.3-2.9-2.7-5.7-4-8.7c-2-4.4-4-9-5.9-13.6c-1.4-3.2-2.8-6.3-4.1-9.5c-1.8-4.3-3.6-8.7-5.3-13.1 c-1.5-3.6-2.9-7.1-4.4-10.7c-1.6-4.2-3.2-8.5-4.8-12.8c-1.5-3.9-3-7.8-4.4-11.7c-1.5-4.2-2.9-8.4-4.3-12.6 c-1.4-4.1-2.9-8.2-4.2-12.4c-1.5-4.5-2.8-9.1-4.1-13.6c-1.2-4-2.5-7.9-3.6-11.9c-1.4-4.8-2.6-9.6-3.9-14.5c-1-3.8-2.1-7.6-3-11.4 c-1.2-4.8-2.2-9.6-3.2-14.4c-0.9-3.9-1.8-7.8-2.6-11.7c-0.9-4.5-1.6-9-2.4-13.5c-0.8-4.3-1.6-8.5-2.3-12.8 c-0.7-4.4-1.2-8.8-1.7-13.2c-0.6-4.4-1.3-8.8-1.7-13.2c-0.5-4.9-0.8-9.9-1.1-14.8c-0.3-3.9-0.7-7.7-0.9-11.6 c-0.2-5.1-0.2-10.2-0.3-15.3c-0.1-3.7-0.2-7.4-0.2-11c0.1-5,0.4-10,0.7-14.9c0.2-3.7,0.2-7.4,0.5-11.1c0.7-8.6,1.7-17.2,3-25.8 c1.3-8.6,2.6-16.8,3.8-24.9c0.7-4.7,1.4-9.3,2.2-13.9c0.2-1.3,0.4-2.8,0.6-4.1c-25.7-49.8-49.7-85.5-64.6-105.9 c10.7,54,12.8,86.2,15.6,128.6C472.2,974,475.8,1030,491.1,1135.9z" fill="#088402"/> <path d="M775.8,374.5c-14.2,3.3-24.4,6.6-30.4,8.9c-38.1,46.6-70.9,97.4-97.7,151.4c11.8-2.4,33.9-6.5,63.5-10.9 C731.9,459.8,754.5,411.1,775.8,374.5z" fill="#FFD400"/> <path d="M636.2,596.4c2.2,2,4.4,4,6.6,6.2c3.3,3.1,6.7,6.3,10.1,9.6c1.4,1.3,2.7,2.6,4.1,3.9 c7.5,7.3,15.4,15.1,23.4,23.4c8.8-40.5,18.4-77,28.7-109.4c-32.4,4.8-55.4,9.3-64.9,11.3c-7,14.6-13.7,29.3-19.8,44.3 c1.8,1.6,3.8,3.5,5.7,5.2C632.1,592.7,634.2,594.5,636.2,596.4z" fill="#FFD400"/> <path d="M810.5,322.6c24.2-31.1,45.6-49,60-58.8c-5.4,1.8-10.4,4.6-14.9,8.2c-37.6,31.1-72.3,65.6-103.5,102.9 c7-2.2,16.2-4.8,27.7-7.3C790.7,349.6,801,334.7,810.5,322.6z" fill="#FFD400"/> <path d="M814.7,326.7c-8.4,10.8-17.5,23.9-27,39.3c13.8-2.7,30.2-5.1,49.4-6.5c15.4-51.7,29.7-78.8,39.5-92.7 C862.6,276.1,840.2,293.9,814.7,326.7z" fill="#FFD400"/> <path d="M887.8,515c-27.6,0.5-54.1,1.9-78.9,3.8c-8,50-15.6,109.5-22.1,180.1c34.3-3.6,67.8-5.6,100.9-6V515z" fill="#FFD400"/> <path d="M887.8,364.3c-16.6-0.4-31.9-0.1-45.8,0.8c-10.6,36.1-21.7,84.2-32.1,147.8c24.5-1.9,50.7-3.2,77.9-3.7 V364.3z" fill="#FFD400"/> <path d="M859.6,875.9c2.6,4.5,5.2,9.1,7.8,13.7c4.7,8.4,9.4,16.8,14,25.5c2.1,4,4.2,7.9,6.3,11.9v-82.6 c-20.4,2.3-35,5.2-42.7,7.1c1.3,2.2,2.7,4.4,4,6.6C852.6,864,856.1,869.9,859.6,875.9z" fill="#FFD400"/> <path d="M519.6,1027.4c0.2,4,0.6,8,0.9,12.1c0.4,4.6,0.6,9.2,1.1,13.8c0.4,4.2,1.1,8.4,1.7,12.6 c0.6,4.4,1.1,8.9,1.8,13.3c0.7,4.3,1.6,8.7,2.4,13c0.8,4.3,1.4,8.5,2.3,12.8c1,4.8,2.1,9.5,3.2,14.2c0.9,3.8,1.6,7.6,2.6,11.4 c1.2,4.8,2.5,9.5,3.8,14.3c1,3.7,1.9,7.4,3,11.1c1.3,4.6,2.8,9.1,4.2,13.7c1.2,3.8,2.3,7.6,3.5,11.3c1.5,4.6,3.1,9.1,4.7,13.7 c1.2,3.6,2.4,7.3,3.7,10.9c1.6,4.4,3.3,8.7,4.9,13.1c1.4,3.7,2.7,7.4,4.1,11c1.5,3.9,3.1,7.7,4.7,11.5c1.6,4,3.2,8,4.9,11.9 c1.5,3.5,3,6.8,4.5,10.2c1.8,4.2,3.6,8.4,5.4,12.4c1.4,3.2,2.9,6.3,4.4,9.4c1.9,4.2,3.8,8.4,5.8,12.5c1.4,2.9,2.8,5.7,4.2,8.5 c2,4.1,4,8.4,6.1,12.4c1.5,2.9,2.9,5.7,4.4,8.5c1.9,3.8,3.9,7.6,5.8,11.3c1.8,3.3,3.5,6.6,5.3,9.9c2,3.6,3.9,7.3,5.9,10.9 c1.5,2.7,3,5.4,4.5,8.1c2.2,4,4.4,8,6.7,11.9c1.2,2.1,2.3,4,3.5,6c2.5,4.4,5.1,8.8,7.6,13c0.6,0.9,1.1,1.8,1.7,2.8 c37.1,62,70.8,107.8,83.7,124.8c3.5,4.6,5.6,7.2,5.7,7.4c0.3,0.3,0.5,0.7,0.7,1.1l98.2,204.7h142.8l38.1-161.8 c38.3-162.3-92.1-528.7-94.1-534.2c-5.1-12.9-10.4-25.5-15.9-37.9c-1.8-4.1-3.6-8.2-5.5-12.3c-3.7-8.3-7.5-16.4-11.4-24.5 c-2.2-4.5-4.3-9-6.5-13.5c-4.2-8.6-8.6-17-12.9-25.3c-3.7-7.1-7.5-14.1-11.3-21c-3.1-5.7-6.2-11.4-9.4-16.9 c-3.4-5.9-6.8-11.7-10.2-17.5c-2.5-4.3-5-8.4-7.6-12.6c-3.6-5.9-7.2-11.9-10.8-17.6c-1.6-2.5-3.2-4.9-4.8-7.4 c-7.2-11.2-14.4-22-21.6-32.5c-2.6-3.7-5.2-7.5-7.7-11.2c-3.4-4.8-6.8-9.6-10.2-14.2c-3.5-4.8-7-9.5-10.5-14.1 c-2.5-3.4-5.1-6.9-7.6-10.1c-6-7.9-12-15.5-18-22.9c-1.6-2-3.2-4-4.9-6c-5.7-7-11.4-13.8-17-20.4c-0.5-0.6-1.1-1.3-1.6-1.9 c-12.7-14.8-25-28.4-36.9-41.1c-2.5-2.7-5.1-5.3-7.6-8c-4-4.1-7.9-8.2-11.7-12.1c-3-3.1-6-6-9-9c-3.1-3.1-6.3-6.2-9.3-9.1 c-4-3.9-7.8-7.5-11.7-11.1c-1.8-1.7-3.7-3.5-5.5-5.2c-29.5-27.3-52.9-45.9-65.6-55.4c7.7,79.9,0,128.7-25,288 c-3.4,21.7-7.1,45.5-11.2,71.6c-0.7,4.5-1.4,9-2.1,13.6c-1.3,8.4-2.6,16.8-3.9,25.7c-1.3,8.3-2.2,16.7-2.9,25.2 c-0.3,3.5-0.3,7.1-0.5,10.6c-0.2,5-0.6,9.9-0.7,14.9c0,3.8,0.2,7.7,0.2,11.6C519.4,1018,519.4,1022.7,519.6,1027.4z" fill="#05C600"/> <path d="M802.7,519.3c-32.9,2.7-62.4,6.3-87.1,9.8c-10.8,34-21.1,72.3-30.3,115.4c2.1,2.2,4.3,4.5,6.4,6.8 c0.3,0.3,0.5,0.6,0.8,0.8c2.6,2.7,5.1,5.4,7.7,8.2c9.7,10.5,20,22.1,30.6,34.5c0.4,0.5,0.9,1,1.3,1.5c2.4,2.8,4.8,5.6,7.3,8.6 c13.9-2,27.7-3.9,41.4-5.4C787.4,629,794.8,569.4,802.7,519.3z" fill="#FFD400"/> <path d="M835.3,365.5c-20.4,1.6-37.7,4.3-51.7,7.2C762,409,738.8,457.9,717.7,523c24.6-3.5,53.7-6.9,86-9.6 C813.9,450.1,824.8,402,835.3,365.5z" fill="#FFD400"/> <path d="M753.1,721.4c5.9,7.3,11.8,14.7,17.8,22.5c1.9,2.4,3.7,5,5.6,7.4c1.2-15.8,2.5-31.1,3.9-46 c-12.1,1.4-24.3,3-36.5,4.8c1.8,2.2,3.6,4.4,5.4,6.6C750.6,718.3,751.8,719.9,753.1,721.4z" fill="#FFD400"/> <path d="M887.8,698.7c-33.3,0.4-67,2.4-101.5,6.1c-1.6,17.2-3.1,35-4.5,53.6c2.2,2.9,4.4,5.9,6.6,8.9 c3.3,4.4,6.5,8.9,9.8,13.5c2.5,3.5,4.9,7,7.4,10.6c7.2,10.4,14.4,21,21.6,32c1.4,2.1,2.7,4.1,4.1,6.2c3.5,5.5,7,11.1,10.5,16.7 c7.4-1.8,23-5.2,46-7.7V698.7z" fill="#FF9100"/> <path d="M936,699.4c-14.1-0.5-28.2-0.8-42.5-0.7V838c24.8-2.4,57.2-3.7,95.9-1.1c9-20.6,19.5-42.2,31.8-64 c-0.6-4.3-1.2-8.4-1.8-12.7C989,743.6,961,723.1,936,699.4z" fill="#FF9100"/> <path d="M893.6,652.1v40.7c12.1-0.1,24.1,0.1,36.1,0.5C916.7,680.4,904.7,666.6,893.6,652.1z" fill="#FF9100"/> <path d="M909.7,971.5c2,4.2,4,8.5,5.9,12.8c5.3,11.6,10.5,23.4,15.5,35.5c0,0.1,0.1,0.2,0.1,0.3 c6.7-32.4,23-100.8,54.2-174.3c0.5-1.1,1-2.2,1.4-3.3c-37.7-2.4-69.2-1.1-93.4,1.3v94.4c1.9,3.8,3.7,7.6,5.6,11.4 C902.8,956.9,906.2,964.2,909.7,971.5z" fill="#FF9100"/> <path d="M775.8,374.5c-14.2,3.3-24.4,6.6-30.4,8.9c-38.1,46.6-70.9,97.4-97.7,151.4c11.8-2.4,33.9-6.5,63.5-10.9 C731.9,459.8,754.5,411.1,775.8,374.5z" fill="#FF9100"/> <path d="M636.2,596.4c2.2,2,4.4,4,6.6,6.2c3.3,3.1,6.7,6.3,10.1,9.6c1.4,1.3,2.7,2.6,4.1,3.9 c7.5,7.3,15.4,15.1,23.4,23.4c8.8-40.5,18.4-77,28.7-109.4c-32.4,4.8-55.4,9.3-64.9,11.3c-7,14.6-13.7,29.3-19.8,44.3 c1.8,1.6,3.8,3.5,5.7,5.2C632.1,592.7,634.2,594.5,636.2,596.4z" fill="#FF9100"/> <path d="M837.6,291.7c0.7-2,1.5-4,2.2-6c-31.5,27.5-60.9,57.2-87.7,89.2c7-2.2,16.2-4.8,27.7-7.3 c10.8-17.9,21.1-32.8,30.6-45C820.1,310.3,829.2,300.1,837.6,291.7z" fill="#FF9100"/> <path d="M833.1,304.9c-5.9,6.4-12,13.6-18.4,21.8c-8.4,10.8-17.5,23.9-27,39.3c9.4-1.8,20-3.5,31.8-4.8 C822.6,342,827.2,323.2,833.1,304.9z" fill="#FF9100"/> <path d="M827.5,517.6c-6.2,0.4-12.6,0.7-18.6,1.2c-8,50-15.6,109.5-22.1,180.1c34.3-3.6,67.8-5.6,100.9-6v-48.8 C860.5,606.3,839.7,563.5,827.5,517.6z" fill="#FF9100"/> <path d="M817.8,467.7c-2.7,14.1-5.4,29.1-8,45.2c5.2-0.4,10.8-0.7,16.2-1C822.5,497.4,819.7,482.7,817.8,467.7z" fill="#FF9100"/> <path d="M859.6,875.9c2.6,4.5,5.2,9.1,7.8,13.7c4.7,8.4,9.4,16.8,14,25.5c2.1,4,4.2,7.9,6.3,11.9v-82.6 c-20.4,2.3-35,5.2-42.7,7.1c1.3,2.2,2.7,4.4,4,6.6C852.6,864,856.1,869.9,859.6,875.9z" fill="#FF9100"/> <path d="M802.7,519.3c-32.9,2.7-62.4,6.3-87.1,9.8c-10.8,34-21.1,72.3-30.3,115.4c2.1,2.2,4.3,4.5,6.4,6.8 c0.3,0.3,0.5,0.6,0.8,0.8c2.6,2.7,5.1,5.4,7.7,8.2c9.7,10.5,20,22.1,30.6,34.5c0.4,0.5,0.9,1,1.3,1.5c2.4,2.8,4.8,5.6,7.3,8.6 c13.9-2,27.7-3.9,41.4-5.4C787.4,629,794.8,569.4,802.7,519.3z" fill="#FF9100"/> <path d="M814.8,420.7c0-18.1,1.4-36,3.9-53.5c-13.3,1.5-25,3.5-35.1,5.6C762,409,738.8,457.9,717.7,523 c24.6-3.5,53.7-6.9,86-9.6c3.9-24.4,8-46.6,12.1-66.7C815.2,438.1,814.8,429.4,814.8,420.7z" fill="#FF9100"/> <path d="M753.1,721.4c5.9,7.3,11.8,14.7,17.8,22.5c1.9,2.4,3.7,5,5.6,7.4c1.2-15.8,2.5-31.1,3.9-46 c-12.1,1.4-24.3,3-36.5,4.8c1.8,2.2,3.6,4.4,5.4,6.6C750.6,718.3,751.8,719.9,753.1,721.4z" fill="#FF9100"/> <path d="M556.3,538.4c0,0,26.5,19.1,36.5,117.7s-34.5,206.7-17.2,345.4c17.2,138.7,48.2,212.7,106.8,312.2 c58.6,99.5,117.1,179,142.6,246.4s17.7,95,51.9,123.8c34.3,28.7,131.5,0,131.5,0l-8.3,65.2l-171.9-4.4c0,0-80.7-171.3-91.7-193.4 S690,1470,690,1470l-91.2-152.5l-42.5-104.4c0,0-46.4-119.9-43.1-181.8c3.3-61.9,9.4-113.3,9.4-113.3l6.1-50.8 c0,0,12.7-81.2,16.6-145.9s5.5-119.4,6.6-142.6S556.3,538.4,556.3,538.4z" fill="#088402"/> <path d="M944.7,987.1c0,0,38.3,65.2,72.5,156.7c34.2,91.5,46.3,261.6,59.6,284.9c13.3,23.2,124.9-128.2,160.2-247.6 s34.3-321.5,67.4-445.9c33.2-124.4,88.1-204.2,248.9-179.3c0,0-92.8,21.6-116,39.8c-23.2,18.2-43.1,40.6-49.7,83.7 c-6.6,43.1-22.4,161.6-42.3,276.8c-19.9,115.2-56.4,274.4-92.8,362.2c-36.5,87.9-74.6,140.7-112.7,173.6 c-38.1,32.8-106.9,64.3-106.9,64.3s22.4-108.4-65.5-412.5l-35.2-106L944.7,987.1z" fill="#088402"/> <path d="M438.8,931c3,45.5,6.7,102.1,22.2,209.3c17.3,119.9,87.5,226.6,143.4,295c50.5,61.8,98.2,104.1,113.3,116.9l97.5,203.2 c4.1,8.5,12.8,14,22.2,14h151.1c11.5,0,21.3-7.8,24-19l39.2-166.3c3.7-15.7,14.5-28.6,28.8-34.6c207.3-85.7,271.2-529,305.6-767.2 c9.1-63.3,17-118,23.6-135.3c22.3-58.3,101.5-64.5,134.5-64.5c6.5,0,10.7,0.3,11.3,0.3l1.8,0.1c10.7,0,20.1-6.9,23.4-17.1 c3.5-10.9-0.9-22.7-10.7-28.6c-4-2.4-41.7-23.8-119-23.8c-69.8,0-149.5,17.3-236.9,51.3c-10.4,4.1-20.6,8.7-30.9,14 c-53.9-129.4-139.5-243.4-248.8-330.8c-13.8-11-31-17.1-48.6-17.1c-18.1,0-35.7,6.3-49.6,17.8C739,328.9,660.5,431.7,608.2,547.1 c-22.4-18.4-36-27.7-36-27.8c-4.1-2.8-8.9-4.3-13.9-4.3c-4.5,0-8.9,1.2-12.7,3.5c-8.2,4.9-12.9,14.3-11.8,23.8 c9.2,83.3,2.5,127.5-22.9,288.9C483,786,462.5,762,461.3,760.7c-4.7-5.4-11.5-8.5-18.6-8.5c-3.8,0-7.6,0.9-11,2.6 c-10.1,5.1-15.5,16.3-13,27.3C433.5,849.6,435.7,883.7,438.8,931z M1225.2,592.9c83.9-32.7,159.9-49.2,225.8-49.2 c32.9,0,57.6,4.3,74.6,8.8c-45,2.8-119.3,17.8-144.5,83.6c-7.8,20.4-15.2,71.4-25.3,141.9c-33.5,232.2-95.8,664.3-287.1,743.4 c-11.6,4.8-21.7,12.4-29.8,21.8c16.1-173.5-90.6-477.5-99.7-502.9c3.4-20,45.8-251,182.5-380.2c1.4-1.3,2.7-2.6,4.1-3.9 c3.3-3.1,6.8-6,10.3-8.9c2-1.7,3.9-3.4,5.9-5.1c3.6-3,7.4-5.8,11.1-8.6c1.9-1.4,3.7-2.8,5.6-4.2c4.1-2.9,8.3-5.8,12.6-8.5 C1188.2,609.9,1206,600.4,1225.2,592.9z M1026,764.7c-2.9-20.4-5.8-40.2-8.9-59.2c14.6,1.8,29.1,3.8,43.5,6.3 C1047.9,729.1,1036.4,746.9,1026,764.7z M1163.8,611.7c-0.5,0.3-1,0.7-1.4,1c-4.4,2.9-8.7,5.9-12.9,9c-1.9,1.4-3.9,2.8-5.8,4.3 c-3.9,3-7.7,6-11.5,9.2c-2,1.7-4,3.3-5.9,5c-3.7,3.2-7.3,6.4-10.9,9.8c-1.7,1.6-3.4,3.3-5.1,4.9c-3.7,3.6-7.4,7.2-11,11 c-1.2,1.2-2.3,2.5-3.5,3.7c-4,4.3-8,8.6-11.8,13.1c-0.2,0.2-0.3,0.4-0.5,0.6c-6.5,7.6-12.8,15.3-18.7,23.2c-16.1-2.8-32.3-5-48.5-7 c-11.3-69.9-23.5-130.5-35.7-182.5c50.9,3.3,102.8,10.6,152.3,24C1144.2,564,1154.6,587.6,1163.8,611.7z M1129.2,534.1 c-48.9-12.8-100-19.8-150.1-23c-13.9-58.5-27.7-105.8-40.1-143.3c27.9,3.2,58.7,8.6,92,17C1069.1,430.7,1102,480.7,1129.2,534.1z M915.5,271.5l0.4,0.3c39.6,31.7,76,67.1,108.7,105.5c-31.6-7.6-60.9-12.7-87.6-15.6c-17.8-53.1-32.4-84.9-39.3-99 C904.1,264.5,910.2,267.3,915.5,271.5z M893.6,267.8c7.1,14.6,20.6,44.9,37.1,93.4c-13-1.3-25.3-2.1-37.1-2.5V267.8z M893.6,364.6 c12.4,0.4,25.3,1.3,39.1,2.7C945.1,404.5,959,452,973,510.7c-27-1.5-53.7-2-79.4-1.6V364.6z M893.6,514.9 c26.2-0.4,53.3,0.1,80.8,1.7c12.2,51.9,24.5,112.4,35.8,182.2c-38.3-4.3-77.1-6.4-116.6-6.1V514.9z M893.6,698.6 c39.8-0.3,78.9,1.8,117.6,6.2c3.5,21.8,6.9,44.4,10.2,68c-12.3,21.8-22.8,43.5-31.8,64c-38.7-2.6-71-1.3-95.9,1.1V698.6z M893.6,843.9c24.1-2.4,55.6-3.7,93.4-1.3c-0.5,1.1-1,2.2-1.4,3.3c-31.2,73.5-47.6,141.9-54.2,174.3c0-0.1-0.1-0.2-0.1-0.3 c-5-12.1-10.2-23.9-15.5-35.5c-2-4.3-3.9-8.5-5.9-12.8c-3.5-7.4-6.9-14.6-10.5-21.8c-1.9-3.8-3.7-7.7-5.6-11.4V843.9z M887.8,262.4 v96.1c-15.9-0.4-30.6-0.1-44.1,0.7C862.8,296,880,271.1,887.8,262.4z M841.8,846.3c-3.5-5.6-7-11.3-10.5-16.7 c-1.4-2.1-2.7-4.1-4.1-6.2c-7.2-11-14.4-21.7-21.6-32c-2.5-3.6-5-7.1-7.4-10.6c-3.3-4.6-6.5-9.1-9.8-13.5c-2.2-3-4.4-6-6.6-8.9 c1.4-18.5,2.9-36.3,4.5-53.6c34.5-3.7,68.2-5.7,101.5-6.1v139.9C864.8,841.1,849.2,844.5,841.8,846.3z M887.8,844.5V927 c-2.1-4-4.2-8-6.3-11.9c-4.6-8.7-9.3-17.1-14-25.5c-2.6-4.6-5.2-9.2-7.8-13.7c-3.5-6-7-11.9-10.6-17.8c-1.3-2.2-2.7-4.5-4-6.6 C852.8,849.7,867.3,846.7,887.8,844.5z M739.5,704.9c-2.5-2.9-4.9-5.7-7.3-8.6c-0.4-0.5-0.9-1-1.3-1.5 c-10.6-12.4-20.9-24-30.6-34.5c-2.6-2.8-5.1-5.5-7.7-8.2c-0.3-0.3-0.5-0.6-0.8-0.8c-2.1-2.3-4.3-4.6-6.4-6.8 c9.2-43.1,19.4-81.4,30.3-115.4c24.7-3.5,54.2-7.1,87.1-9.8c-7.9,50.1-15.4,109.7-21.8,180.2C767.2,701,753.4,702.8,739.5,704.9z M780.4,705.4c-1.3,14.8-2.6,30.1-3.9,46c-1.9-2.5-3.8-5-5.6-7.4c-6-7.8-11.9-15.2-17.8-22.5c-1.3-1.6-2.6-3.1-3.8-4.7 c-1.8-2.2-3.6-4.4-5.4-6.6C756.1,708.4,768.3,706.7,780.4,705.4z M717.7,523c21.2-65,44.4-114,65.9-150.3c14-2.9,31.3-5.6,51.7-7.2 c-10.5,36.5-21.4,84.6-31.6,147.9C771.4,516,742.2,519.5,717.7,523z M786.8,698.9c6.5-70.6,14.1-130.1,22.1-180.1 c24.8-1.9,51.3-3.3,78.9-3.8v177.9C854.7,693.3,821.1,695.3,786.8,698.9z M809.9,512.9c10.4-63.6,21.5-111.6,32.1-147.8 c13.9-0.9,29.2-1.2,45.8-0.8v144.8C860.5,509.7,834.4,511,809.9,512.9z M837.1,359.6c-19.2,1.4-35.6,3.8-49.4,6.5 c9.5-15.4,18.6-28.5,27-39.3c25.5-32.9,47.9-50.6,61.9-59.8C866.8,280.7,852.5,307.9,837.1,359.6z M855.7,272 c4.4-3.7,9.5-6.4,14.9-8.2c-14.4,9.8-35.8,27.7-60,58.8c-9.5,12.2-19.8,27.1-30.6,45c-11.6,2.5-20.7,5.1-27.7,7.3 C783.4,337.6,818.1,303.1,855.7,272z M745.4,383.3c6-2.2,16.3-5.6,30.4-8.9c-21.3,36.6-44,85.4-64.6,149.4 c-29.6,4.3-51.7,8.5-63.5,10.9C674.5,480.8,707.4,430,745.4,383.3z M644.3,541.4c9.5-2,32.5-6.5,64.9-11.3 c-10.2,32.4-19.9,68.9-28.7,109.4c-8.1-8.3-15.9-16.1-23.4-23.4c-1.4-1.4-2.7-2.6-4.1-3.9c-3.4-3.3-6.8-6.5-10.1-9.6 c-2.3-2.1-4.4-4.1-6.6-6.2c-2.1-1.9-4.1-3.7-6.1-5.6c-1.9-1.7-3.9-3.6-5.7-5.2C630.6,570.7,637.2,556,644.3,541.4z M519.8,986.7 c0.2-3.5,0.2-7.1,0.5-10.6c0.7-8.5,1.6-16.9,2.9-25.2c1.4-8.8,2.7-17.3,3.9-25.7c0.7-4.6,1.4-9.2,2.1-13.6c4-26,7.8-49.9,11.2-71.6 c25-159.4,32.7-208.1,25-288c12.7,9.5,36.1,28.1,65.6,55.4c1.8,1.6,3.7,3.5,5.5,5.2c3.8,3.6,7.7,7.2,11.7,11.1c3,2.9,6.2,6,9.3,9.1 c3,2.9,5.9,5.9,9,9c3.8,3.9,7.8,8,11.7,12.1c2.5,2.6,5,5.3,7.6,8c11.9,12.7,24.3,26.3,36.9,41.1c0.5,0.6,1.1,1.3,1.6,1.9 c5.6,6.6,11.3,13.4,17,20.4c1.6,2,3.2,3.9,4.9,6c6,7.4,12,15.1,18,22.9c2.5,3.3,5.1,6.8,7.6,10.1c3.5,4.6,7,9.3,10.5,14.1 c3.4,4.7,6.8,9.4,10.2,14.2c2.6,3.7,5.2,7.4,7.7,11.2c7.2,10.5,14.4,21.3,21.6,32.5c1.6,2.5,3.2,4.9,4.8,7.4 c3.6,5.7,7.2,11.7,10.8,17.6c2.5,4.2,5.1,8.4,7.6,12.6c3.4,5.7,6.8,11.5,10.2,17.5c3.2,5.5,6.3,11.2,9.4,16.9 c3.8,6.9,7.6,13.9,11.3,21c4.3,8.3,8.7,16.7,12.9,25.3c2.2,4.4,4.3,9,6.5,13.5c3.8,8,7.6,16.2,11.4,24.5c1.8,4.1,3.7,8.1,5.5,12.3 c5.4,12.4,10.7,25,15.9,37.9c2,5.5,132.3,371.9,94.1,534.2l-38.1,161.8H841l-98.2-204.7c-0.2-0.4-0.4-0.8-0.7-1.1 c-0.1-0.1-2.2-2.8-5.7-7.4c-13-17-46.7-62.7-83.7-124.8c-0.6-0.9-1.1-1.8-1.7-2.8c-2.5-4.2-5.1-8.7-7.6-13c-1.2-2-2.3-4-3.5-6 c-2.2-3.9-4.4-7.9-6.7-11.9c-1.5-2.7-3-5.3-4.5-8.1c-2-3.6-3.9-7.2-5.9-10.9c-1.8-3.3-3.5-6.5-5.3-9.9c-1.9-3.7-3.9-7.5-5.8-11.3 c-1.5-2.9-2.9-5.6-4.4-8.5c-2-4-4-8.2-6.1-12.4c-1.4-2.9-2.8-5.6-4.2-8.5c-1.9-4.1-3.9-8.3-5.8-12.5c-1.5-3.1-2.9-6.2-4.4-9.4 c-1.8-4.1-3.6-8.3-5.4-12.4c-1.5-3.4-3-6.8-4.5-10.2c-1.7-3.9-3.2-7.9-4.9-11.9c-1.6-3.8-3.2-7.6-4.7-11.5c-1.4-3.6-2.8-7.3-4.1-11 c-1.6-4.3-3.3-8.7-4.9-13.1c-1.3-3.6-2.5-7.3-3.7-10.9c-1.6-4.6-3.2-9.1-4.7-13.7c-1.2-3.7-2.3-7.6-3.5-11.3 c-1.4-4.6-2.9-9.1-4.2-13.7c-1.1-3.7-2-7.4-3-11.1c-1.3-4.8-2.6-9.5-3.8-14.3c-0.9-3.8-1.7-7.6-2.6-11.4c-1.1-4.7-2.2-9.5-3.2-14.2 c-0.9-4.3-1.5-8.5-2.3-12.8c-0.8-4.3-1.7-8.7-2.4-13c-0.7-4.4-1.2-8.9-1.8-13.3c-0.5-4.2-1.2-8.4-1.7-12.6 c-0.5-4.6-0.7-9.2-1.1-13.8c-0.3-4-0.7-8.1-0.9-12.1c-0.2-4.7-0.2-9.4-0.3-14.1c-0.1-3.9-0.3-7.7-0.2-11.6 C519.2,996.7,519.5,991.7,519.8,986.7z M518.2,906.3c-0.2,1.3-0.4,2.8-0.6,4.1c-0.7,4.6-1.4,9.2-2.2,13.9 c-1.2,8.1-2.5,16.4-3.8,24.9c-1.3,8.5-2.3,17.1-3,25.8c-0.3,3.7-0.3,7.4-0.5,11.1c-0.2,5-0.6,9.9-0.7,14.9c0,3.7,0.2,7.3,0.2,11 c0.1,5.1,0,10.2,0.3,15.3c0.2,3.8,0.6,7.7,0.9,11.6c0.4,4.9,0.6,9.9,1.1,14.8c0.5,4.4,1.1,8.8,1.7,13.2c0.6,4.4,1,8.8,1.7,13.2 c0.7,4.3,1.5,8.5,2.3,12.8c0.8,4.5,1.5,9,2.4,13.5c0.8,3.9,1.8,7.8,2.6,11.7c1.1,4.8,2.1,9.6,3.2,14.4c0.9,3.8,2,7.6,3,11.4 c1.3,4.8,2.5,9.7,3.9,14.5c1.1,4,2.4,7.9,3.6,11.9c1.4,4.5,2.7,9.1,4.1,13.6c1.4,4.2,2.8,8.3,4.2,12.4c1.4,4.2,2.8,8.5,4.3,12.6 c1.4,3.9,2.9,7.8,4.4,11.7c1.6,4.3,3.1,8.6,4.8,12.8c1.4,3.6,2.9,7.1,4.4,10.7c1.8,4.4,3.5,8.8,5.3,13.1c1.4,3.2,2.8,6.3,4.1,9.5 c2,4.5,3.9,9.1,5.9,13.6c1.3,2.9,2.7,5.8,4,8.7c2.1,4.5,4.2,9.1,6.3,13.5c1.4,3,2.9,5.9,4.3,8.8c2,4.2,4.1,8.4,6.1,12.4 c1.4,2.8,2.8,5.5,4.3,8.3c2,3.9,4,7.9,6,11.7c0,0.1,0.1,0.2,0.1,0.3c0,0.1,0.1,0.1,0.1,0.2c0.3,0.6,0.7,1.2,1,1.9 c3.5,6.7,7.1,13.3,10.6,19.7c0.8,1.5,1.6,2.9,2.4,4.3c3.2,5.8,6.5,11.6,9.7,17.2c0.5,0.9,1,1.7,1.5,2.6 c23.8,41.2,46.8,76.3,64.8,102.1c-65.5-64.7-183.7-200.4-206.2-356c-15.3-106-19-161.9-21.9-206.9c-2.8-42.4-4.9-74.6-15.6-128.6 C468.5,820.7,492.5,856.4,518.2,906.3z"/> </g> </g>
</svg>