<!DOCTYPE svg PUBLIC "-//W3C//DTD SVG 1.1//EN" "http://www.w3.org/Graphics/SVG/1.1/DTD/svg11.dtd">
<!-- Uploaded to: SVG Repo, www.svgrepo.com, Transformed by: SVG Repo Mixer Tools -->
<svg width="80px" height="80px" viewBox="0 0 2000 2000" enable-background="new 0 0 2000 2000" id="Layer_1" version="1.1" xml:space="preserve" xmlns="http://www.w3.org/2000/svg" xmlns:xlink="http://www.w3.org/1999/xlink" fill="#000000">
<g id="SVGRepo_bgCarrier" stroke-width="0"/>
<g id="SVGRepo_tracerCarrier" stroke-linecap="round" stroke-linejoin="round"/>
<g id="SVGRepo_iconCarrier"> <g> <path d="M890.1,1702.5l-12.3-21.1l0,0l0,0l0,0L859,1649c-2.7-4.7-5.6-9.5-8.5-14.7l0,0 c-45.4-78-107.9-185.3-157-269.7c50,103,115.6,238.2,153.3,315.7l19.5,40.2v0c3.8,7.9,6.8,13.9,8.5,17.5l32.3-6.3 C904,1726.4,898.7,1717.3,890.1,1702.5L890.1,1702.5z" fill="#05C600"/> <path d="M724,1293.6c-27.6-23.7-48.7-41.9-56-57.6c-1.4,7.4-1.8,19,3.7,33.1c9.8,25,40.2,61.5,127.6,95.9 C775.3,1337.9,748.2,1314.4,724,1293.6z" fill="#FFA452"/> <path d="M698.2,1152c-26.5-22.7-46.7-40.2-53.9-55.2c-1.3,7.1-1.6,18.2,3.6,31.5c9.4,24.1,38.6,59.1,122.5,92.2 C747.4,1194.5,721.5,1171.9,698.2,1152z" fill="#FFA452"/> <path d="M826.4,1721.8l22.6,12.6c1.3-2.7,2.6-5.3,3.9-8l1.6-3.3c-3.7-7.7-8.2-17-13.4-27.6 C836.2,1704.2,831.3,1712.9,826.4,1721.8z" fill="#05C600"/> <path d="M727.8,1289.2c24.3,20.8,51.3,44.3,75.5,71.6c-0.2-0.9-0.3-1.7-0.5-2.6c-8.8-22.8-37.6-70.8-130.4-126.1 C678.2,1246.7,700.5,1265.8,727.8,1289.2z" fill="#CC7A37"/> <path d="M666.6,992.8c22,18.9,46.4,40.1,68.6,64.4c-1-3.8-1.9-7.6-2.9-11.3c-13.6-24.7-45.2-63.7-118.9-107.7 C619.4,952.3,641.5,971.3,666.6,992.8z" fill="#CC7A37"/> <path d="M633.7,836.5c-21.8-23.3-38.5-41.3-43.8-55.9c-1.8,6.4-3,16.3,0.3,28.7c6.2,23,29.4,58.1,102.7,97 C674.2,880.3,652.9,857.1,633.7,836.5z" fill="#FFA452"/> <path d="M702.1,1147.6c22.7,19.5,48,41.5,70.8,66.8c-0.5-2.3-1-4.5-1.5-6.8c-11.2-23.8-41.4-66.3-122.4-114.7 C654.9,1107.1,677,1126.1,702.1,1147.6z" fill="#CC7A37"/> <path d="M662.7,997.2C636.3,974.5,616,957,608.9,942c-1.3,7.1-1.6,18.2,3.6,31.5c9.4,24,38.6,59.1,122.5,92.2 C711.9,1039.7,686,1017.2,662.7,997.2z" fill="#FFA452"/> <path d="M1069.1,1353.5c73.4-4.7,105-24.6,118.5-41.1c6.8-8.4,9.5-16.3,10.6-22.1c-10.1,9.6-30.1,18-56,28.7 C1119.2,1328.7,1093.6,1339.5,1069.1,1353.5z" fill="#FFA452"/> <path d="M908.9,1668.5c0.7,3.5,1.4,6.8,2.1,10.3c96.4-81.9,211-146.4,288.6-185.5 c-116.3,45.7-219.7,112.7-292.4,166.8C907.8,1662.9,908.3,1665.7,908.9,1668.5z" fill="#05C600"/> <path d="M1500.1,786.3c18.9,5.8,35.7,8.9,49.6,8.9c23.7,0,34.7-8.4,39.8-15c-9.1,2.7-22.6,3-39.6,3.2 C1534.5,783.7,1517.4,784.1,1500.1,786.3z" fill="#FFA452"/> <path d="M954.3,1551.7c-0.4,0.8-0.9,1.7-1.3,2.6c25.3-14.4,51.6-25.6,75.3-35.4c25.5-10.5,47.9-19.9,57.1-29.5 C1004.5,1507.9,968.9,1535.5,954.3,1551.7z" fill="#CC7A37"/> <path d="M1069,1346.8c23.9-13.4,48.6-23.9,70.9-33.1c24.3-10.1,45.7-19,54.8-28.2c-72.6,16.6-107.2,40.8-122.8,56.6 C1070.9,1343.7,1070,1345.3,1069,1346.8z" fill="#CC7A37"/> <path d="M1008.9,1460.4c76.4-4.8,109.3-25.5,123.3-42.5c7.3-8.9,10.1-17.4,11.2-23.4c-10.3,10.1-31.3,18.8-58.3,30 C1061.2,1434.4,1034.4,1445.7,1008.9,1460.4z" fill="#FFA452"/> <path d="M1007.9,1453.1c-0.3,0.6-0.7,1.2-1,1.8c25.5-14.6,52.1-25.9,76-35.7c25.5-10.5,47.9-19.9,57.1-29.5 C1057.1,1408.5,1021.8,1437,1007.9,1453.1z" fill="#CC7A37"/> <path d="M1077.6,1517.8c7.3-8.9,10.1-17.4,11.2-23.4c-10.3,10.1-31.3,18.8-58.3,30c-24,9.9-50.7,21.2-76.2,35.9 C1030.7,1555.4,1063.6,1534.8,1077.6,1517.8z" fill="#FFA452"/> <path d="M1137.3,1240.3c73.2-4.7,104.8-24.5,118.3-40.9c6.9-8.4,9.6-16.4,10.7-22.2c-10.1,9.6-30.1,18-55.9,28.7 C1187.3,1215.4,1161.7,1226.3,1137.3,1240.3z" fill="#FFA452"/> <path d="M1424.3,781.1c6.7-22.9,11.9-40.9,19.1-51c-5.1,1.7-11.5,4.9-17.9,11.8c-12.5,13.4-26.3,42.6-23.7,105.2 C1411.4,824.7,1418.3,801.7,1424.3,781.1z" fill="#FFA452"/> <path d="M1410.7,841.4c3.1-3.2,6.1-6.3,9-9.4c10.8-18.3,22.9-48.9,28.9-98.9c-6.8,9.2-12.4,28.1-18.6,49.6 C1424.6,801.1,1418.7,821.3,1410.7,841.4z" fill="#CC7A37"/> <path d="M1489.9,882.3c-9.1,2.7-22.7,3-39.7,3.3c-15.4,0.2-32.5,0.6-49.8,2.8c18.9,5.8,35.7,8.9,49.6,8.9 C1473.9,897.3,1484.9,888.9,1489.9,882.3z" fill="#FFA452"/> <path d="M1523.6,692.4c-12.4,2.9-34.7,17-43,78.8c9.2-14.8,16.8-30.2,23.4-44.1 C1511.5,711.7,1517.4,699.5,1523.6,692.4z" fill="#FFA452"/> <path d="M1487.1,877c-13.2-1.8-25.7-2.9-37-2.9c-24.5,0-40,4.3-49.2,8.3c17.1-2.1,33.9-2.4,49.1-2.7 C1465.2,879.5,1478.7,879.2,1487.1,877z" fill="#CC7A37"/> <path d="M1549.8,777.6c15.1-0.2,28.6-0.5,37-2.7c-13.2-1.8-25.7-2.9-37-2.9c-24.2,0-39.6,4.2-48.9,8.2 C1518,778.2,1534.7,777.9,1549.8,777.6z" fill="#CC7A37"/> <path d="M1556.5,732.3c11.3-4.3,28.8-14.8,50.9-39.2c-6,3.6-13.7,9.9-22,16.8C1576.7,717.1,1567.1,725,1556.5,732.3 z" fill="#CC7A37"/> <path d="M1606.7,686.9c-1-0.1-2-0.3-3.2-0.3c-9.7,0-28.8,5.9-52.6,42.5c11.3-7.6,21.5-16,30.8-23.7 C1591.7,697.1,1599.8,690.4,1606.7,686.9z" fill="#FFA452"/> <path d="M1336.9,872.1c3.8-23.5,6.9-42.1,12.8-53c-4.6,2.1-10.3,5.9-15.7,13c-11.2,14.7-21.8,45.4-11.5,108.1 C1329.3,917,1333.4,893.4,1336.9,872.1z" fill="#FFA452"/> <path d="M1491.2,765c2.7-2.3,5.4-4.4,7.9-6.4c9.1-12.5,19.4-32,28.4-61.8c-5.6,6.7-11.5,19-18.1,32.7 C1504,740.8,1498.1,752.9,1491.2,765z" fill="#CC7A37"/> <path d="M1319.2,1050.4c-43.5,15.3-71,31.9-88.2,46.1c-3.6,5.1-7.3,10.4-11,15.7c17.6-11.8,35.6-21.8,52.1-30.8 C1293.1,1069.8,1311.5,1059.5,1319.2,1050.4z" fill="#CC7A37"/> <path d="M688.8,890.7c-2.5-8.2-4.9-16.2-7.4-24.2c-14.3-23.2-40.1-53.8-86.6-89.1c4.4,13.7,22.5,33.1,43.1,55.1 C654.3,850,672.3,869.3,688.8,890.7z" fill="#CC7A37"/> <path d="M532.6,645.6c0,5.1,1,11.9,5.2,19.9c8.7,16.4,32.1,39,93.5,56.2c-18.3-16.2-38.1-29.9-56-42 C555.6,666.2,540,655.6,532.6,645.6z" fill="#FFA452"/> <path d="M463,522.1c1.3,4.3,3.7,9.6,8.7,15.1c11.2,12.3,36.9,26.8,95,27.4c-19.7-9.6-40.1-16.8-58.4-23.2 C488.1,534.5,472.1,528.9,463,522.1z" fill="#FFA452"/> <path d="M1246.4,1038.1c4.1-5.4,8-10.6,12-15.8c10.7-24.4,21-64.5,20.6-127.9c-7.8,11.6-12,37-16.8,65.9 C1258.3,984.5,1253.8,1011.3,1246.4,1038.1z" fill="#CC7A37"/> <path d="M1256.5,959.4c5-30.5,9-54.1,16.9-67c-6,2.5-14.3,7.4-21.8,17.2c-14.1,18.5-27.4,57.2-13.8,136.8 C1246.9,1016.6,1252,986.4,1256.5,959.4z" fill="#FFA452"/> <path d="M1399.8,957.6c-44.5,5.5-70.2,16.6-84.6,26c-1,1.3-2,2.6-3,3.8c16.4-6.4,32.8-11.2,47.7-15.5 C1376.7,967,1391.7,962.7,1399.8,957.6z" fill="#CC7A37"/> <path d="M1395.7,973.9c4-4.2,6.1-8.2,7.4-11.6c-8.7,5.6-23.2,9.9-41.5,15.2c-16.6,4.8-35,10.3-52.9,17.8 c3.6,0.1,7.4,0.3,10.8,0.3C1365.4,995.6,1386.3,983.8,1395.7,973.9z" fill="#FFA452"/> <path d="M1211.9,1125c66.5-11.9,93.3-33.3,104-49.7c5.2-8,6.9-15.2,7.3-20.5c-8.5,9.7-26,19.4-48.2,31.6 C1255,1097.4,1232.8,1109.8,1211.9,1125z" fill="#FFA452"/> <path d="M1331.3,930.7c2.7-3.2,5.4-6.4,8-9.5c8.3-19.6,16-51,15.9-99.7c-5.6,9.9-8.9,29.4-12.5,51.5 C1339.7,891.1,1336.4,910.8,1331.3,930.7z" fill="#CC7A37"/> <path d="M1139.7,1232.1c23.1-12.7,46.8-22.7,68.3-31.6c24.3-10.1,45.7-19,54.8-28.2c-66.4,15.2-101,36.8-118.4,52.5 C1142.8,1227.3,1141.3,1229.7,1139.7,1232.1z" fill="#CC7A37"/> <path d="M1162.3,1154.4c2.8-4,5.5-7.9,8.3-11.8c10.4-23.9,20.6-66.6,15.1-138.1c-7,12.1-9.4,37.8-12.1,66.9 C1171.2,1097.1,1168.4,1125.7,1162.3,1154.4z" fill="#CC7A37"/> <path d="M508.1,394.1c-4-18.2-6.5-36.1-8.6-52.5c-2.6-19.7-5-37.3-9.5-46.7c-1.3,40.7,3.8,68.3,10,86.5 C502.6,385.4,505.3,389.6,508.1,394.1z" fill="#CC7A37"/> <path d="M447,330.1c-10.4-13.2-19.2-27.1-27.1-39.6c-8-12.7-15.2-24-21.4-30C416.7,302.6,435.3,321.7,447,330.1z" fill="#CC7A37"/> <path d="M452.9,327.9c-15.2-59.7-38.7-71-51.1-72.4c6.9,6.3,14.1,17.6,23.1,31.8C433,300.2,442.1,314.5,452.9,327.9 z" fill="#FFA452"/> <path d="M492.6,405c0-0.1-0.1-0.1-0.1-0.2C480.4,393,452,374,390.7,363.4c8.3,6.4,25,12.2,43.8,18.7 C452.7,388.3,472.9,395.5,492.6,405z" fill="#CC7A37"/> <path d="M491.1,410.7c-19.7-9.6-40.1-16.8-58.4-23.2c-20.2-7-36.3-12.6-45.3-19.4c1.3,4.3,3.7,9.5,8.7,15.1 C407.3,395.6,432.9,410.1,491.1,410.7z" fill="#FFA452"/> <path d="M516.2,402.5c10.8-56.3,2.1-84.5-7.7-98.1c-4.4-6.2-9.2-9.6-13.2-11.8c4.9,10.2,7.1,27.1,9.9,48.3 C507.8,360,510.8,381.3,516.2,402.5z" fill="#FFA452"/> <path d="M576.2,432.3c-0.9,26.6-1.6,56.3,1.4,86.4c27.8-73.3,22.5-112.8,12.5-133c-5.2-10.7-12.1-16.9-17.3-20.4 C577.8,379.1,577.2,402.3,576.2,432.3z" fill="#FFA452"/> <path d="M627.4,641.9c1.5-26,5.3-51.1,8.9-73.8c4.4-28,8.1-52.6,4.5-65.8c-19.4,58-22.2,97.9-19.8,123.7 C623.1,631.2,625.2,636.5,627.4,641.9z" fill="#CC7A37"/> <path d="M510.3,535.9c18.3,6.3,38.5,13.5,58.3,23c-11.9-11.7-40.3-31-102.1-41.7 C474.8,523.6,491.4,529.4,510.3,535.9z" fill="#CC7A37"/> <path d="M578.6,674.8c16.3,11.1,34.2,23.4,51.3,37.8c-0.8-2.2-1.6-4.5-2.4-6.6c-12.7-16.5-38.6-40.3-90.4-64.3 C543.7,651,560.1,662.2,578.6,674.8z" fill="#CC7A37"/> <path d="M570.9,511.5c-2.2-27.7-1.4-54.9-0.6-79.3c0.9-28.3,1.7-53.2-3.5-65.9c-12.7,62.5-10,103.2-4,128.3 C565.5,500,568.2,505.8,570.9,511.5z" fill="#CC7A37"/> <path d="M1017.4,1374.4c2.7-4.3,5.3-8.5,8-12.7c9.2-24.5,17.3-67.4,8.8-137.8c-6.4,12.4-7.7,38.1-9.2,67.3 C1023.7,1317,1022.1,1345.6,1017.4,1374.4z" fill="#CC7A37"/> <path d="M1008.7,1242.1c-11.9,20-20.7,59.9,1.8,137.4c5.6-30.6,7.3-61.2,8.6-88.5c1.5-30.9,2.7-54.8,9.2-68.5 C1022.6,1225.6,1015,1231.4,1008.7,1242.1z" fill="#FFA452"/> <path d="M885.3,1553.7c69.5-299.8,207.2-642.7,289.8-835.2c-164,332.1-274.9,708.5-298.9,793.1 C879.4,1526.3,882.4,1540.3,885.3,1553.7z" fill="#088402"/> <path d="M898.4,1616.7c0.9,4.2,1.7,8.3,2.6,12.6c102.2-201.6,198.2-360.5,281.4-483.1 c-80.4,114.4-176.6,263.1-287.2,454.6C896.2,1606,897.3,1611.4,898.4,1616.7z" fill="#CC7A37"/> <path d="M858.4,1417.9c56.3-81.8,61.2-131.5,54.9-159.1c-3.6-15.8-11-25.6-16.6-31.1c3.1,18.1-4.9,47.5-14.7,83.3 C873.1,1343.5,863.4,1379.9,858.4,1417.9z" fill="#FFA452"/> <path d="M1167.8,1070.9c2.8-30.8,5.1-54.6,12.2-68c-5.8,2.9-13.7,8.4-20.5,18.7c-12.7,19.4-23.3,59-4.2,137.4 C1162.2,1128.6,1165.2,1098.1,1167.8,1070.9z" fill="#FFA452"/> <path d="M1085.6,1267.9c2.9-4.4,5.7-8.7,8.6-13c8.7-24.9,15.9-67.2,7.7-134.9c-6.4,12.4-7.7,38.1-9.2,67.3 C1091.6,1212.2,1090.1,1239.9,1085.6,1267.9z" fill="#CC7A37"/> <path d="M684.3,797.3c1.3-35.1,6.4-69,11.1-99.6c5.8-37.6,10.6-68.2,5-83.7c-25.3,75-28.3,125.8-24.9,157.9 C678.5,780.2,681.4,788.7,684.3,797.3z" fill="#CC7A37"/> <path d="M853.6,1410c5.3-35.7,14.4-69.9,22.8-100.5c10.1-36.7,18.3-66.5,14.5-82.6 c-35.6,75.6-43.4,127.3-42.7,159.4C850,1394,851.8,1402,853.6,1410z" fill="#CC7A37"/> <path d="M689.9,807.6c46.6-87.6,45.8-137.7,36.4-164.3c-5.4-15.3-13.8-24.2-20-29c5.1,17.7,0.5,47.8-5.2,84.5 C696.1,732,690.5,769.3,689.9,807.6z" fill="#FFA452"/> <path d="M742,967c52.5-84,55.3-133.9,47.9-161.1c-4.2-15.7-12.1-25.3-18-30.6c3.8,18-2.8,47.7-11.1,83.9 C753.4,892,745.3,928.9,742,967z" fill="#FFA452"/> <path d="M632.9,654.9c36.6-69.6,35.9-109.5,28.4-130.8c-3.9-11.2-9.9-18-14.6-22.1c3.4,14.4-0.1,37.3-4.7,67 C637.9,595.3,633.6,624.7,632.9,654.9z" fill="#FFA452"/> <path d="M861.1,1629.4c20.3,34.9,33.8,58,42.7,73.4c-1.1-5.6-2.2-11.1-3.3-16.7c-1.7-8.6-3.4-17.1-5.1-25.5 l-0.4-1.9c0,0,0-0.1,0-0.1c-0.8-3.7-1.5-7.4-2.3-11.1c-2.9-14.4-5.8-28.7-8.8-42.8C803,1213.5,723.2,941.9,659.1,760.3 C725.7,954.5,803,1239.4,861.1,1629.4z" fill="#FFA452"/> <path d="M736.7,961.3c3.6-36.7,11.3-71.9,18.5-103.5c8.5-37.1,15.3-67.3,10.9-83.2c-34.7,83-38.4,136.9-35,168 C732.9,948.9,734.8,955,736.7,961.3z" fill="#CC7A37"/> <path d="M804.2,1020.4c10.1-36.7,18.3-66.5,14.5-82.6C782.4,1015,775,1067.1,776,1099c1.8,6.7,3.7,13.7,5.6,20.5 C786.9,1084.3,795.9,1050.7,804.2,1020.4z" fill="#CC7A37"/> <path d="M824.7,1273c56.3-81.8,61.2-131.5,54.9-159.1c-3.6-15.8-11-25.6-16.6-31.1c3.1,18.1-4.9,47.5-14.7,83.4 C839.4,1198.6,829.7,1235.1,824.7,1273z" fill="#FFA452"/> <path d="M814.8,1247.5c1.6,6.5,3.2,13,4.9,19.6c5.2-36.4,14.5-71.3,23-102.5c10.1-36.7,18.3-66.5,14.5-82.6 C819.2,1162.7,812.9,1216.1,814.8,1247.5z" fill="#CC7A37"/> <path d="M786.2,1128.9c56.2-81.6,61.1-131.3,55-158.9c-3.6-15.8-11-25.8-16.6-31.3c3,18.1-4.9,47.5-14.7,83.3 C800.9,1054.5,791.1,1091,786.2,1128.9z" fill="#FFA452"/> <path d="M1086.9,1187c1.5-30.9,2.7-54.8,9.2-68.5c-5.7,3.1-13.3,9-19.7,19.6c-11.9,19.9-20.7,59.9,1.8,137.4 C1083.9,1245,1085.6,1214.4,1086.9,1187z" fill="#FFA452"/> <path d="M488,435.4c11.9,21.9,23.8,45.5,35.8,70.6c-18.1-6.2-38.7-11-61.9-14.6l-1.4-0.2h-1.3c-0.9,0-1.8,0.1-2.8,0.2l-2.8,0 l-1.5,0.7l-2.2,0.2l-4.5,3.5l-4.3,3.6l-1.2,3.1l-2.1,2.7l-0.6,5.4c-0.3,2.3-2,22.9,16.1,42.9c20.6,22.8,56,34.5,108,35.7 c6.4,14.9,12.8,30.5,19.5,47.1c-12.5-7.2-26.2-14.1-41.1-20.7l-3.8-1.5h-1.2l-0.5-0.2l-5.5,0l-0.9,0.2l-1.7,0l-3.5,1.5l-5.2,2.4 l-1.9,2.7l-2.9,2.1l-2,5.3c-1.4,3.8-7.7,23.9,5.2,48.6c15.2,29.2,50.7,52,105.5,67.8c3.6,10.2,7.2,20.6,10.8,31.1 c-8.9-7.5-18.4-15-28.4-22.4c-1.2-0.9-2.5-1.6-3.9-2.2l-3.1-2l-8,0l-7.3,1.4l-2.4,2.2l-3,1.3l-3.1,4.7c-1.6,2.4-15.3,24-6.5,56.9 c10.6,39.7,48.9,77.4,113.9,112.1c3.2,11,6.4,22.1,9.6,33.3c-19.9-16.3-43.3-32.3-70.2-47.9c-1.2-0.7-2.5-1.2-3.8-1.6l-2.8-1.4 c0,0-5.8,0.3-6.2,0.3h-1.4l-2.6,0.8l-5.3,1.8l-2.2,2.4l-3,1.8l-2.5,4.9c-1.4,2.7-13.1,26.9-0.1,60.3 c15.8,40.8,60.9,76.3,134.1,105.5c2.8,11.1,5.5,22.2,8.3,33.4c-21.2-18.1-46.7-35.9-76.5-53.2l-4.9-2.7h-1l-1.1-0.6 c0,0-5.8,0.3-6.1,0.3h-1.4l-2.6,0.8l-5.3,1.8l-2.2,2.4l-3,1.8l-2.5,4.9c-1.4,2.7-13.1,26.9-0.1,60.3c15.9,41,61.3,76.6,134.9,105.8 c1.9,8.6,3.7,17.3,5.6,25.9c-21-18.9-48.9-39.7-86.1-61.3l-5-2.9h-1.2l-1.1-0.6c0,0-5.8,0.3-6.1,0.3h-1.4l-2.6,0.8l-5.3,1.8 l-2.2,2.4l-3,1.8l-2.6,5c-0.4,0.7-1.5,3-2.6,6.5c-1.5-2.7-3-5.1-4.3-7.3c-4.4-7.6-12.6-12.3-21.3-12.3c-4,0-8,1-11.6,2.9 c-11.8,6.3-16.4,20.6-10.6,32.6l215.4,443.6c-5.6,9.9-11.1,19.9-16.8,30c-6.6,11.9-2.3,26.9,9.6,33.6l33.2,18.5 c3.7,2,7.8,3.1,12,3.1c2.5,0,5-0.4,7.5-1.2c3.7,2.1,7.9,3.3,12.4,3.3l2.9-0.1l46.5-9l1.2-0.2l0.5-0.2l1.7-0.3l1-0.6 c1.6-0.7,2.9-1.4,3.4-1.7l1.1-0.5l1.7-1.3c1.7-1.3,3.2-2.9,4.5-4.7l1.1-1.1l2.7-5.7l0.2-1.4c0.4-1.6,0.7-3.3,0.8-5.2 c0-0.7,0.1-3.7,0.1-3.7l-6.8-34.4c157.8-132.7,364.4-218.6,366.5-219.5c12-4.9,18.2-18.4,14-30.7c-3.4-10-12.8-16.8-23.4-16.8 c-2.1,0-4.3,0.3-6.3,0.8c-60,15.9-118,38.9-171.8,65c1.5-9.1,0.6-15.6,0.3-17.2l-1.1-5.4l-1.1-1.2l-0.1-0.3l-0.9-1.1l-1.4-3.2 l-2.6-1.6l-1-1.4l-0.9-0.3c20.3-8.4,36.1-19.3,47.2-32.9c20.4-24.9,17.2-49.1,16.6-52.5l-1.1-5.3l-1.1-1.3l-1.1-1.3l-1.3-2.9 l-2.4-1.7l-1.2-1.7l-2.9-1.1l-2.6-1.7l-2.1-0.1l-0.7-0.3c24.3-8.4,42.8-20.3,55.2-35.5c19.9-24.3,16.7-48,16.2-51.3l-1.1-5.3 l-1.1-1.2l-0.1-0.3l-1-1.2l-1.5-3.2l-2.5-1.5l-1-1.4l-3.3-1.3l-2.6-1.6l-1.6,0l-1.1-0.4h-1.4l-0.3-0.1l-5.3,0l-1.9,0.4 c-23.5,5-44.8,11.1-63.9,18.2c2.8-4.4,5.5-8.8,8.2-13.1c65.2-4.5,110.1-21.3,133.5-49.9c19.9-24.3,16.7-48,16.2-51.2l-1.1-5.3 l-1.1-1.2l-1.1-1.4l-1.4-2.9l-2.3-1.6l-1.2-1.6l-2.3-0.9l-2.7-2.1l-2.8,0l-0.9-0.4h-1.4l-0.3-0.1l-5.3,0l-1.9,0.4 c-20.6,4.4-39.5,9.6-56.7,15.6c3-4.4,5.9-8.7,8.9-13c60.2-10.9,100.4-31.2,119.3-60.4c15.1-23.2,11.4-44,10.2-48.8l-1.3-5.8 l-2.1-1.8l-0.1-0.2l-1.2-1.1l-1.5-2.5l-3-1.7l-1.4-1.4l-2.3-0.6l-2.2-1.2h-2.1l-0.9-0.2l-7.2,0.1l-2.9,1 c-5.3,1.8-10.5,3.6-15.5,5.4c2.5-3.2,4.9-6.5,7.4-9.6c3,0.1,5.9,0.1,8.8,0.1c43.9,0,75.6-9.9,94.2-29.4c16.3-17.1,16.2-35,16-39.2 l-0.6-5.2l-0.8-1.1l-0.1-0.5l-1-1.5l-0.9-2.8l-1.9-1.7l-0.9-1.7l-3-1.7l-2.6-2.1l-2.8-0.4c-0.3-0.1-0.6-0.2-0.9-0.3l-1.9-0.9h-5.4 l-0.9,0.1c-9.5,1-18.5,2.2-27.1,3.7c6.6-7.8,13-15.2,19.2-22.3c19.7,5.7,37.2,8.6,52.2,8.6c46.3,0,64.5-26.3,68-42.1l1.1-5.3 l-0.6-1.8l0-0.7l-0.5-1.5l-0.2-2.7l-1.5-2.4l-0.5-2.1l-3.1-2.9l-1.9-2.4l-1.9-0.8c-0.3-0.2-0.6-0.4-0.9-0.5l-2.3-2l-5.3-0.9 c-15.6-2.6-30.4-4.1-44-4.4c13.4-13.8,26.4-26.8,39.1-38.8c20.5,6.1,38.8,9.2,54.4,9.2c46.7,0,64.7-26.4,68-42.3l1-5.3l-0.6-1.7 l0-0.7l-0.5-1.5l-0.2-2.9l-1.7-2.6l-0.6-1.9l-2.1-2l-1.8-2.6l-2.5-1.1c-0.4-0.3-0.8-0.5-1.2-0.8l-2.3-1.9l-5.2-0.9 c-7.2-1.2-14.2-2.2-21-2.9c15.2-8.5,33.5-23.2,54.4-48c0.9-1.1,1.7-2.3,2.3-3.6l2-2.6l0.3-2.9l0.8-1.6l-0.5-5.2l-0.8-5.9l-2.2-2.7 l-1.2-3.2l-4.3-3.3c-1.8-1.3-11.3-8.1-26.3-8.1c-16.8,0-33.2,7.8-49,23.3l-0.1-0.3l0.1-1.6l-2.8-5.2l-3.5-5.2l-2.8-1.4l-2.5-2.5 l-5.6-1.2c-1.3-0.3-4.1-0.7-7.9-0.7c-10.8,0-39.7,4.2-58.7,46.4l-1.8-2.1l-3.9-4.2l-3-1l-2.8-2.1l-7.1-0.3 c-5.8,0-26.2,1.5-44.6,21.4c-16.6,17.8-26.4,43.9-29.5,79.2l-0.4-0.7l-0.6-2.2l-4-3.8l-4.4-3.8l-3.5-0.7l-3.1-1.6l-5.2,0.3 c-2.5,0.1-24.5,2.1-42.2,25.2c-10.3,13.4-16.8,31-19.5,52.6l-2.7-2.4l-3.5-0.7l-3.1-1.6l-5.4,0.4c-2.8,0.2-27.9,2.6-48.2,29 c-16.6,21.6-24.9,52.5-24.8,92.2l-0.7-0.9l-0.7-2.1l-4.3-3.5l-4.7-3.6l-3.6-0.4l-2-0.8l-5.2,0l-1.3,0.2 c-2.8,0.4-27.6,4.7-45.9,32.3c-14.5,21.9-20.7,51.9-18.5,89.6l-4-2.8l-4.7-3.1l-3.2-0.2l-1.5-0.6h-5.5l-1.7,0.3 c-2.8,0.5-27.4,5.9-44.5,34.3c-10.9,18.2-16.2,41.4-15.8,69.3l-5.8,0l-1.7,0.3c-1,0.2-5.2,1.1-10.9,3.6 c112.3-327.3,247.1-614.7,249-618.7c5.7-12,0.9-26.2-11-32.4c-3.5-1.8-7.4-2.8-11.4-2.8c-8.8,0-17,4.7-21.4,12.4 c-125.5,217.7-227.7,481.9-295.1,678.3c-10.7-23.8-27.6-33.7-29.8-34.9l-4.4-2.4h-2.3l-0.4-0.1h-1.2c15-40.4,14.9-69.6,10.4-89.5 c-8.5-37.3-33.1-51.5-35.7-52.9l-4.5-2.4h-2.2l-0.4-0.1h-1.5l-0.4-0.1l-3.9,0c14.7-40,14.6-68.9,10.1-88.6 c-8.4-37-33-51.4-36.4-53.3l-4.1-2h-1.9l-0.4-0.1h-1.5l-0.4-0.1l-5.3,0l-0.8,0.3l-2.1,0l-2.3,1.4l-3,1l-1.8,2.2 c-0.3,0.3-0.7,0.6-1,0.9l-2.5,1.7l-2.3,4.7c-13.3,27.6-23.9,53.8-31.8,78.5c-1.8-6.1-3.6-12.2-5.3-18.2 c58.2-92.7,60.3-150.1,51.5-182.2c-10.1-36.9-35.4-50-38-51.3l-4.1-2h-1.8l-0.3-0.1l-7.6,0l-1.1,0.4l-2.2,0.1l-2.2,1.4l-3.3,1.1 l-1.9,2.6c-0.2,0.2-0.4,0.4-0.6,0.6l-2.5,1.8l-2.1,4.9c-12,28-21.4,54.5-28.1,79.4c-2.1-6.3-4.1-12.6-6.2-18.7 c51.1-96,49-153.1,38-184.3c-12.6-35.8-38.7-47.4-41.8-48.6l-3.4-1.3l-9.8,0.1l-1.5,0.7L691,586l-2.4,1.9l-2.8,1.3l-0.7,1.1 c7-28.7,6.9-53.6-0.4-74.3c-10.8-30.8-33.5-40.8-35.5-41.6l-3.7-1.6l-10.7,0.1l-1.4,0.7l-1.8,0.2l-2.9,2.2l-2.8,1.4l-1.3,2.1 c-0.2,0.2-0.4,0.4-0.5,0.6l-2.4,2l-1.8,5.1c-6.3,18.2-11.4,35.6-15.3,52.2c-1.5-3.4-3-6.7-4.5-10c25.7-67,29.8-119,12.1-154.7 c-14.1-28.5-36.4-35.9-41.3-37.3l-2.3-0.6l-5.4,0l-0.5,0.2l-0.6,0l-0.3,0.1l-2.8,0l-2.7,1.5l-2.1,0.5l-1.9,1.8l-2.9,1.7l-1.4,2.8 c-0.2,0.3-0.5,0.6-0.7,1l-1.6,1.7c-1-24-6.8-43.4-17.3-58c-15.9-22.2-36.9-24.8-39.2-25l-0.9-0.1l-5.5,0.1l-1,0.5l-0.3,0l-1.4,0.7 l-3.1,0.6l-2.2,1.9l-2.2,0.9l-1.8,2.6l-2,1.7l-0.8,2.5c-0.3,0.5-0.5,1.1-0.8,1.6l-1.6,2.5c0,0-0.3,6.7-0.4,7.4 c-20.8-48.7-49.5-57.1-66.8-57.1c-6.4,0-11,1.2-14.2,2.3l-5,2l-1.1,1.4l-0.9,1.1l-2.7,1.8l-1.4,2.9l-1.4,1.6l-0.6,2.7l-1.3,2.8 l0.4,2.8c0,0.5,0,1,0,1.4l-0.4,3l1.9,4.8c18.6,46.3,38.8,71.2,54.8,84.5c-12.5-3.2-25.9-6-40.3-8.1l-1.6-0.3h-1.6 c-0.9,0-1.8,0.1-2.7,0.2l-2.9,0l-1.5,0.7l-1.9,0.2l-4.3,3.2l-4.7,3.7l-1.2,3.2l-2.3,2.7l-0.5,5.9c-0.3,3.7-1.1,23.4,16.2,42.5 C398.5,422.8,434.7,434.5,488,435.4z M1549.7,795.2c-14,0-30.7-3.1-49.6-8.9c17.3-2.2,34.4-2.6,49.8-2.8c17-0.3,30.6-0.6,39.6-3.2 C1584.4,786.8,1573.4,795.2,1549.7,795.2z M1556.5,732.3c10.5-7.3,20.1-15.2,28.9-22.4c8.4-6.9,16-13.3,22-16.8 C1585.4,717.5,1567.8,728,1556.5,732.3z M1603.5,686.5c1.2,0,2.2,0.2,3.2,0.3c-6.9,3.5-15,10.2-25,18.5 c-9.3,7.7-19.5,16.1-30.8,23.7C1574.7,692.4,1593.8,686.5,1603.5,686.5z M1549.9,772c11.3,0,23.8,1.1,37,2.9 c-8.4,2.2-22,2.4-37,2.7c-15.1,0.2-31.8,0.6-48.8,2.6C1510.2,776.3,1525.7,772,1549.9,772z M1499.1,758.6c-2.5,2-5.2,4.2-7.9,6.4 c6.9-12.1,12.9-24.2,18.2-35.5c6.6-13.7,12.5-26,18.1-32.7C1518.5,726.6,1508.2,746.1,1499.1,758.6z M1523.6,692.4 c-6.2,7.1-12.2,19.3-19.5,34.7c-6.7,13.9-14.2,29.3-23.4,44.1C1489,709.4,1511.3,695.2,1523.6,692.4z M1425.5,741.9 c6.4-6.9,12.9-10.2,17.9-11.8c-7.1,10.1-12.4,28.1-19.1,51c-6,20.7-12.9,43.6-22.6,66C1399.2,784.5,1413,755.3,1425.5,741.9z M1448.6,733.1c-6,50-18,80.6-28.9,98.9c-3,3.1-6,6.2-9,9.4c8-20.1,13.9-40.3,19.3-58.7C1436.2,761.2,1441.8,742.3,1448.6,733.1z M1450.2,874.1c11.3,0,23.8,1.1,37,2.9c-8.4,2.2-22,2.4-37,2.7c-15.2,0.2-32,0.6-49.1,2.7C1410.2,878.4,1425.7,874.1,1450.2,874.1z M1450.2,885.6c17-0.3,30.7-0.6,39.7-3.3c-5,6.6-16,15-39.9,15c-14,0-30.7-3.1-49.6-8.9C1417.7,886.2,1434.8,885.8,1450.2,885.6z M1333.9,832.2c5.4-7.1,11.1-10.9,15.7-13c-5.9,10.9-8.9,29.4-12.8,53c-3.5,21.2-7.5,44.9-14.4,68.2 C1312.2,877.6,1322.7,846.9,1333.9,832.2z M1355.1,821.6c0.1,48.7-7.6,80.1-15.9,99.7c-2.6,3.1-5.3,6.3-8,9.5 c5.1-19.9,8.4-39.7,11.4-57.7C1346.3,851,1349.5,831.5,1355.1,821.6z M1315.2,983.6c14.3-9.4,40.1-20.5,84.6-26 c-8.1,5.1-23.1,9.5-39.9,14.3c-15,4.3-31.4,9.1-47.7,15.5C1313.2,986.1,1314.2,984.8,1315.2,983.6z M1361.6,977.5 c18.3-5.3,32.9-9.6,41.5-15.2c-1.3,3.4-3.5,7.4-7.4,11.6c-9.4,9.9-30.3,21.7-76.3,21.7c-3.4,0-7.1-0.2-10.8-0.3 C1326.6,987.7,1345,982.3,1361.6,977.5z M1323.2,1054.8c-0.5,5.3-2.1,12.5-7.3,20.5c-10.7,16.4-37.5,37.9-104,49.7 c20.9-15.2,43.1-27.6,63.1-38.6C1297.2,1074.2,1314.7,1064.5,1323.2,1054.8z M1251.7,909.6c7.5-9.8,15.7-14.7,21.8-17.2 c-8,12.9-11.9,36.4-16.9,67c-4.4,27-9.6,57.2-18.6,87C1224.3,966.8,1237.6,928.1,1251.7,909.6z M1279,894.4 c0.4,63.4-9.9,103.4-20.6,127.9c-3.9,5.2-7.9,10.4-12,15.8c7.4-26.8,11.9-53.6,15.8-77.8C1267,931.4,1271.2,906.1,1279,894.4z M1231,1096.4c17.2-14.2,44.6-30.8,88.2-46.1c-7.7,9.2-26.1,19.4-47.1,30.9c-16.5,9.1-34.5,19.1-52.1,30.8 C1223.7,1106.8,1227.4,1101.6,1231,1096.4z M1212,1041c0.5,3.2,1,6.4,1.6,9.7c-0.5,0.7-1.1,1.5-1.6,2.2 C1212,1049,1212,1045,1212,1041z M471.8,537.2c-5.1-5.5-7.5-10.8-8.7-15.1c9,6.8,25.1,12.4,45.3,19.4c18.3,6.3,38.7,13.5,58.4,23.2 C508.6,564,483,549.5,471.8,537.2z M537.8,665.5c-4.2-7.9-5.2-14.8-5.2-19.9c7.4,9.9,23,20.6,42.7,34.1c17.8,12.2,37.6,25.9,56,42 C569.9,704.5,546.4,681.9,537.8,665.5z M681.4,866.5c2.5,7.9,4.9,16,7.4,24.2c-16.5-21.4-34.5-40.7-50.9-58.2 c-20.6-22-38.7-41.4-43.1-55.1C641.3,812.8,667.1,843.3,681.4,866.5z M656.1,663.8c3.2-6.1,6.1-12,8.8-17.9 c-2.3,8.5-4.3,16.8-6.1,24.9C657.9,668.5,657,666.1,656.1,663.8z M590.1,809.4c-3.3-12.4-2.1-22.2-0.3-28.7 c5.3,14.5,22.1,32.6,43.8,55.9c19.2,20.6,40.6,43.8,59.1,69.8C619.5,867.5,596.3,832.4,590.1,809.4z M732.3,1045.8 c1,3.7,1.9,7.6,2.9,11.3c-22.3-24.3-46.6-45.5-68.6-64.4c-25.1-21.5-47.1-40.4-53.1-54.7C687,982.1,718.7,1021.1,732.3,1045.8z M612.5,973.5c-5.2-13.3-4.9-24.4-3.6-31.5c7.1,15,27.4,32.5,53.9,55.2c23.3,19.9,49.2,42.5,72.3,68.5 C651.1,1032.6,621.9,997.6,612.5,973.5z M771.3,1207.5c0.5,2.3,1,4.5,1.5,6.8c-22.9-25.3-48.1-47.3-70.8-66.8 c-25.1-21.5-47.1-40.4-53.1-54.7C729.9,1141.2,760.1,1183.7,771.3,1207.5z M648,1128.3c-5.2-13.3-4.9-24.4-3.6-31.5 c7.1,15,27.4,32.5,53.9,55.2c23.3,19.9,49.2,42.5,72.3,68.5C686.6,1187.4,657.4,1152.3,648,1128.3z M802.8,1358.2 c0.2,0.9,0.3,1.7,0.5,2.6c-24.2-27.3-51.3-50.8-75.5-71.6c-27.3-23.4-49.6-42.5-55.4-57.1C765.3,1287.4,794,1335.4,802.8,1358.2z M671.7,1269.2c-5.5-14.1-5.1-25.7-3.7-33.1c7.3,15.6,28.4,33.9,56,57.6c24.3,20.8,51.3,44.3,75.3,71.4 C711.9,1330.7,681.5,1294.2,671.7,1269.2z M810.3,1504.7c-29.1-50.1-59.5-102.3-86.8-149c17.8,10.8,39.4,21.6,65.8,32 C796.6,1425.9,803.6,1465,810.3,1504.7z M852.9,1726.4c-1.3,2.7-2.6,5.3-3.9,8l-22.6-12.6c4.9-8.8,9.8-17.6,14.7-26.3 c5.2,10.6,9.7,20,13.4,27.6L852.9,1726.4z M874.8,1738.1c-1.8-3.6-4.7-9.6-8.5-17.5v0l-19.5-40.2 c-37.6-77.5-103.2-212.6-153.3-315.7c49.1,84.4,111.6,191.7,157,269.7l0,0c3,5.1,5.8,10,8.5,14.7l18.8,32.4l0,0l0,0l0,0l12.3,21.1 l0,0c8.6,14.7,13.9,23.8,17,29.2L874.8,1738.1z M1199.6,1493.3c-77.6,39.1-192.2,103.6-288.6,185.5c-0.7-3.5-1.4-6.8-2.1-10.3 c-0.6-2.8-1.1-5.6-1.7-8.4C979.9,1606,1083.3,1539,1199.6,1493.3z M1140,1389.6c-9.3,9.6-31.7,19-57.1,29.5 c-23.9,9.9-50.4,21.1-76,35.7c0.3-0.6,0.7-1.2,1-1.8C1021.8,1437,1057.1,1408.5,1140,1389.6z M1068.1,1385.6c1.5-2.5,3-5.1,4.4-7.6 c8-0.5,15.7-1.3,23.1-2.2C1086,1378.9,1076.8,1382.2,1068.1,1385.6z M954.3,1560.3c25.5-14.7,52.2-26,76.2-35.9 c27-11.2,47.9-19.9,58.3-30c-1,6.1-3.8,14.6-11.2,23.4C1063.6,1534.8,1030.7,1555.4,954.3,1560.3z M962,1584.5 c-1.9,1.2-3.7,2.4-5.5,3.6c0.6-1.1,1.2-2.3,1.8-3.4C959.5,1584.6,960.8,1584.6,962,1584.5z M1028.3,1518.9 c-23.7,9.8-50,20.9-75.3,35.4c0.4-0.8,0.9-1.7,1.3-2.6c14.6-16.2,50.2-43.8,131.1-62.3C1076.1,1499.1,1053.7,1508.4,1028.3,1518.9z M1132.2,1417.9c-14,17-46.9,37.7-123.3,42.5c25.5-14.7,52.2-26,76.2-35.9c27-11.2,47.9-19.9,58.3-30 C1142.4,1400.6,1139.6,1409.1,1132.2,1417.9z M1198.1,1290.4c-1,5.8-3.7,13.7-10.6,22.1c-13.4,16.4-45,36.4-118.5,41.1 c24.5-14.1,50-24.9,73-34.4C1168,1308.5,1188.1,1300.1,1198.1,1290.4z M1194.7,1285.6c-9.1,9.2-30.4,18.1-54.8,28.2 c-22.3,9.2-47,19.7-70.9,33.1c0.9-1.6,1.9-3.1,2.8-4.7C1087.5,1326.3,1122,1302.2,1194.7,1285.6z M1266.2,1177.3 c-1,5.8-3.8,13.8-10.7,22.2c-13.5,16.3-45.1,36.2-118.3,40.9c24.5-14.1,50.1-24.9,73-34.4 C1236.1,1195.3,1256.2,1186.9,1266.2,1177.3z M1262.8,1172.4c-9.1,9.2-30.4,18.1-54.8,28.2c-21.5,8.9-45.2,18.9-68.3,31.6 c1.5-2.4,3.1-4.9,4.6-7.2C1161.8,1209.2,1196.4,1187.6,1262.8,1172.4z M1185.7,1004.5c5.5,71.5-4.8,114.1-15.1,138.1 c-2.7,3.9-5.5,7.9-8.3,11.8c6.1-28.7,8.9-57.3,11.3-83C1176.3,1042.3,1178.7,1016.7,1185.7,1004.5z M1159.5,1021.6 c6.8-10.3,14.7-15.8,20.5-18.7c-7.1,13.4-9.4,37.2-12.2,68c-2.5,27.3-5.6,57.8-12.5,88.1C1136.2,1080.5,1146.7,1041,1159.5,1021.6z M1131.5,1165.8c-0.4,0.6-0.9,1.3-1.3,1.9c-0.1-2.8-0.1-5.5-0.3-8.3C1130.5,1161.4,1131,1163.6,1131.5,1165.8z M1101.9,1119.9 c8.2,67.7,1,110-7.7,134.9c-2.9,4.3-5.7,8.6-8.6,13c4.4-28,5.9-55.6,7.1-80.6C1094.2,1158.1,1095.5,1132.4,1101.9,1119.9z M1076.5,1138.1c6.3-10.6,13.9-16.4,19.7-19.6c-6.5,13.7-7.7,37.6-9.2,68.5c-1.3,27.4-3,58-8.6,88.5 C1055.8,1198,1064.6,1158,1076.5,1138.1z M1182.3,1146.1c-83.1,122.7-179.2,281.6-281.4,483.1c-0.9-4.2-1.7-8.4-2.6-12.6 c-1.1-5.3-2.2-10.7-3.3-16C1005.8,1409.2,1101.9,1260.5,1182.3,1146.1z M938.4,1467.1c11.4-42.7,24-85.8,37.2-128.8 c2.6,15.3,6.4,31.7,11.5,49.1C971,1413.3,954.8,1439.9,938.4,1467.1z M1034.1,1223.9c8.5,70.5,0.4,113.4-8.8,137.8 c-2.7,4.2-5.3,8.4-8,12.7c4.8-28.9,6.4-57.5,7.6-83.2C1026.4,1262,1027.7,1236.3,1034.1,1223.9z M1028.3,1222.5 c-6.5,13.7-7.7,37.6-9.2,68.5c-1.3,27.4-3,58-8.6,88.5c-22.5-77.5-13.7-117.5-1.8-137.4C1015,1231.4,1022.6,1225.6,1028.3,1222.5z M1175.1,718.5c-82.7,192.5-220.3,535.5-289.8,835.2c-2.8-13.4-5.8-27.4-9-42.1C900.2,1427,1011.1,1050.5,1175.1,718.5z M896.8,1227.6c5.6,5.5,13,15.3,16.6,31.1c6.3,27.6,1.4,77.4-54.9,159.1c5-37.9,14.7-74.4,23.6-106.9 C891.9,1275.2,899.8,1245.8,896.8,1227.6z M876.4,1309.4c-8.4,30.6-17.5,64.8-22.8,100.5c-1.8-7.9-3.6-16-5.4-23.8 c-0.7-32,7.1-83.8,42.7-159.4C894.7,1242.9,886.5,1272.8,876.4,1309.4z M863.1,1082.7c5.6,5.5,13,15.4,16.6,31.1 c6.3,27.6,1.4,77.4-54.9,159.1c5-37.9,14.7-74.4,23.6-106.9C858.2,1130.3,866.2,1100.9,863.1,1082.7z M857.2,1081.9 c3.8,16.1-4.4,46-14.5,82.6c-8.6,31.2-17.8,66-23,102.5c-1.6-6.6-3.2-13.1-4.9-19.6C812.9,1216.1,819.2,1162.7,857.2,1081.9z M824.5,938.7c5.6,5.6,13,15.5,16.6,31.3c6.2,27.6,1.2,77.3-55,158.9c5-37.9,14.7-74.4,23.6-106.9 C819.6,986.2,827.6,956.8,824.5,938.7z M818.6,937.8c3.8,16.1-4.4,46-14.5,82.6c-8.3,30.2-17.3,63.9-22.6,99.1 c-1.9-6.9-3.7-13.8-5.6-20.5C775,1067.1,782.4,1015,818.6,937.8z M772,775.3c5.8,5.3,13.7,14.9,18,30.6 c7.4,27.3,4.6,77.2-47.9,161.1c3.3-38.1,11.4-75,18.9-107.8C769.2,823,775.8,793.3,772,775.3z M766,774.7 c4.5,15.9-2.4,46.1-10.9,83.2c-7.2,31.5-14.9,66.8-18.5,103.5c-1.9-6.3-3.8-12.5-5.6-18.6C727.6,911.5,731.3,857.7,766,774.7z M706.4,614.2c6.2,4.8,14.6,13.8,20,29c9.4,26.7,10.2,76.7-36.4,164.3c0.6-38.3,6.1-75.6,11.3-108.9 C706.9,662,711.5,631.8,706.4,614.2z M700.5,614c5.6,15.6,0.8,46.2-5,83.7c-4.7,30.5-9.8,64.5-11.1,99.6 c-2.9-8.6-5.9-17.1-8.7-25.4C672.1,739.8,675.1,689,700.5,614z M884,1604.7c2.9,14.1,5.8,28.4,8.8,42.8c0.8,3.7,1.5,7.4,2.3,11.1 c0,0,0,0.1,0,0.1l0.4,1.9c1.7,8.5,3.4,17,5.1,25.5c1.1,5.6,2.2,11.1,3.3,16.7c-8.9-15.3-22.4-38.5-42.7-73.4 c-58.1-390-135.4-675-202-869.1C723.2,941.9,803,1213.5,884,1604.7z M646.7,502c4.8,4.1,10.7,10.9,14.6,22.1 c7.5,21.3,8.2,61.2-28.4,130.8c0.7-30.2,5-59.6,9.1-85.9C646.6,539.3,650.1,516.3,646.7,502z M640.8,502.3 c3.6,13.2-0.2,37.8-4.5,65.8c-3.5,22.8-7.4,47.8-8.9,73.8c-2.2-5.5-4.3-10.8-6.4-16C618.6,600.2,621.4,560.3,640.8,502.3z M627.5,706c0.8,2.2,1.6,4.4,2.4,6.6c-17-14.4-35-26.7-51.3-37.8c-18.6-12.6-34.9-23.9-41.6-33.2 C588.9,665.7,614.8,689.4,627.5,706z M590.1,385.7c9.9,20.3,15.3,59.7-12.5,133c-3-30-2.2-59.8-1.4-86.4c1-30,1.7-53.2-3.4-67.1 C578,368.8,584.8,375,590.1,385.7z M566.9,366.2c5.2,12.7,4.4,37.6,3.5,65.9c-0.8,24.5-1.5,51.6,0.6,79.3 c-2.7-5.7-5.4-11.5-8.1-16.9C556.9,469.5,554.1,428.7,566.9,366.2z M568.5,559c-19.8-9.6-40-16.7-58.3-23 c-18.8-6.5-35.5-12.3-43.8-18.7C528.3,527.9,556.6,547.3,568.5,559z M508.5,304.4c9.8,13.6,18.4,41.8,7.7,98.1 c-5.4-21.2-8.4-42.5-10.9-61.6c-2.8-21.2-5-38-9.9-48.3C499.3,294.7,504.1,298.2,508.5,304.4z M489.9,294.9 c4.6,9.4,6.9,26.9,9.5,46.7c2.2,16.4,4.6,34.3,8.6,52.5c-2.8-4.5-5.5-8.7-8.1-12.7C493.7,363.3,488.7,335.7,489.9,294.9z M452.9,327.9c-10.7-13.5-19.9-27.7-28-40.6c-9-14.2-16.2-25.5-23.1-31.8C414.1,257,437.6,268.2,452.9,327.9z M398.5,260.5 c6.2,6,13.4,17.3,21.4,30c7.9,12.6,16.7,26.4,27.1,39.6C435.3,321.7,416.7,302.6,398.5,260.5z M492.5,404.8c0,0.1,0.1,0.1,0.1,0.2 c-19.7-9.5-39.9-16.6-58.1-22.9c-18.8-6.5-35.5-12.3-43.8-18.7C452,374,480.4,393,492.5,404.8z M432.6,387.6 c18.3,6.3,38.7,13.5,58.4,23.2c-58.1-0.6-83.8-15.2-95-27.4c-5.1-5.5-7.5-10.8-8.7-15.1C396.4,375,412.4,380.6,432.6,387.6z"/> </g> </g>
</svg>